{"title":"Deadpool 2016 Movies HDCam XviD AAC with Sample ~ ☻rDX☻","uid":13522753,"size":740244789,"categoryP":"video","categoryS":"movies","magnet":"?xt=urn:btih:7eb07d46a2d3df52205ffa69984320733ddd8ac3&amp;dn=Deadpool+2016+Movies+HDCam+XviD+AAC+with+Sample+%7E+%E2%98%BBrDX%E2%98%BB&amp;tr=udp%3A%2F%2Ftracker.leechers-paradise.org%3A6969&amp;tr=udp%3A%2F%2Fzer0day.ch%3A1337&amp;tr=udp%3A%2F%2Fopen.demonii.com%3A1337&amp;tr=udp%3A%2F%2Ftracker.coppersurfer.tk%3A6969&amp;tr=udp%3A%2F%2Fexodus.desync.com%3A6969","seeders":1,"leechers":3,"uploader":"basicssom","files":2,"time":1455374426,"description":"----------------------------------------------------------------\r\nDeadpool 2016 Movies HDCam XviD AAC with Sample ~ ☻rDX☻\r\n\r\nSCREEN SHOTS &amp; POSTER:\r\n  \nhttp://mobileshosting.com/2016/2/DEADPOOL/11.html  \nhttp://mobileshosting.com/2016/2/DEADPOOL/1.html  \nhttp://mobileshosting.com/2016/2/DEADPOOL/2.html  \nhttp://mobileshosting.com/2016/2/DEADPOOL/3.html  \nhttp://mobileshosting.com/2016/2/DEADPOOL/4.html  \nhttp://mobileshosting.com/2016/2/DEADPOOL/5.html  \nhttp://mobileshosting.com/2016/2/DEADPOOL/6.html  \nhttp://mobileshosting.com/2016/2/DEADPOOL/7.html  \nhttp://mobileshosting.com/2016/2/DEADPOOL/8.html  \nhttp://mobileshosting.com/2016/2/DEADPOOL/9.html  \nhttp://mobileshosting.com/2016/2/DEADPOOL/10.html\r\n\r\nFormat                                   : Matroska\r\nFormat version                           : Version 4 / Version 2\r\nFile size                                : 698 MiB\r\nDuration                                 : 1h 37mn\r\nOverall bit rate                         : 1 000 Kbps\r\nMovie name                               : DEADPOOL 2016 Movies HDCam XviD AAC New Source ☻rDX☻\r\n\r\nVideo\r\nID                                       : 1\r\nFormat                                   : AVC\r\nFormat/Info                              : Advanced Video Codec\r\nFormat profile                           :   \r\nFormat settings, CABAC                   : No\r\nFormat settings, ReFrames                : 1 frame\r\nFormat settings, GOP                     : M=1, N=12\r\nCodec ID                                 : V_MPEG4/ISO/AVC\r\nDuration                                 : 1h 37mn\r\nBit rate                                 : 852 Kbps\r\nWidth                                    : 720 pixels\r\nHeight                                   : 304 pixels\r\nDisplay aspect ratio                     : 16:9\r\nFrame rate mode                          : Constant\r\nFrame rate                               : 23.962 fps\r\nColor space                              : YUV\r\nChroma subsampling                       : 4:2:0\r\nBit depth                                : 8 bits\r\nScan type                                : Progressive\r\nBits/(Pixel*Frame)                       : 0.162\r\nStream size                              : 595 MiB (85%)\r\nTitle                                    : ☻rDX☻\r\nDefault                                  : Yes\r\nForced                                   : No\r\n\r\nAudio\r\nID                                       : 2\r\nFormat                                   : MPEG Audio\r\nFormat version                           : Version 1\r\nFormat profile                           : Layer 3\r\nMode                                     : Joint stereo\r\nCodec ID                                 : A_MPEG/L3\r\nCodec ID/Hint                            : MP3\r\nDuration                                 : 1h 37mn\r\nBit rate mode                            : Constant\r\nBit rate                                 : 128 Kbps\r\nChannel(s)                               : 2 channels\r\nSampling rate                            : 44.1 KHz\r\nCompression mode                         : Lossy\r\nStream size                              : 89.3 MiB (13%)\r\nTitle                                    : ☻rDX☻\r\nLanguage                                 : Russian\r\nDefault                                  : Yes\r\nForced                                   : No\r\n\r\nIMDB                                      \nhttp://www.imdb.com/title/tt1431045/","torrent":{"xt":"urn:btih:7eb07d46a2d3df52205ffa69984320733ddd8ac3","amp;dn":"Deadpool+2016+Movies+HDCam+XviD+AAC+with+Sample+%7E+%E2%98%BBrDX%E2%98%BB","amp;tr":["udp%3A%2F%2Ftracker.leechers-paradise.org%3A6969","udp%3A%2F%2Fzer0day.ch%3A1337","udp%3A%2F%2Fopen.demonii.com%3A1337","udp%3A%2F%2Ftracker.coppersurfer.tk%3A6969","udp%3A%2F%2Fexodus.desync.com%3A6969"],"infoHash":"7eb07d46a2d3df52205ffa69984320733ddd8ac3","infoHashBuffer":{"type":"Buffer","data":[126,176,125,70,162,211,223,82,32,95,250,105,152,67,32,115,61,221,138,195]},"announce":[],"urlList":[]}}